<svg width="20" height="20" viewBox="0 0 20 20" fill="none" xmlns="http://www.w3.org/2000/svg">
<path fill-rule="evenodd" clip-rule="evenodd" d="M10 0.25C4.61522 0.25 0.25 4.61522 0.25 10C0.25 15.3848 4.61522 19.75 10 19.75C15.3848 19.75 19.75 15.3848 19.75 10C19.75 4.61522 15.3848 0.25 10 0.25ZM10.75 7C10.75 6.58579 10.4142 6.25 10 6.25C9.58579 6.25 9.25 6.58579 9.25 7V9.25H7C6.58579 9.25 6.25 9.58579 6.25 10C6.25 10.4142 6.58579 10.75 7 10.75H9.25V13C9.25 13.4142 9.58579 13.75 10 13.75C10.4142 13.75 10.75 13.4142 10.75 13V10.75H13C13.4142 10.75 13.75 10.4142 13.75 10C13.75 9.58579 13.4142 9.25 13 9.25H10.75V7Z" fill="#0F172A"/>
</svg>
